<?xml version="1.0" encoding="UTF-8" standalone="no"?>
<svg
   xmlns:dc="http://purl.org/dc/elements/1.1/"
   xmlns:cc="http://creativecommons.org/ns#"
   xmlns:rdf="http://www.w3.org/1999/02/22-rdf-syntax-ns#"
   xmlns:svg="http://www.w3.org/2000/svg"
   xmlns="http://www.w3.org/2000/svg"
   style="enable-background:new"
   version="1.1"
   id="svg2"
   viewBox="0 0 1262 502.85904"
   height="502.85901"
   width="1262">
  <defs
     id="defs4" />
  <metadata
     id="metadata7">
    <rdf:RDF>
      <cc:Work
         rdf:about="">
        <dc:format>image/svg+xml</dc:format>
        <dc:type
           rdf:resource="http://purl.org/dc/dcmitype/StillImage" />
        <dc:title></dc:title>
      </cc:Work>
    </rdf:RDF>
  </metadata>
  <g
     transform="translate(0,-9.1410561)"
     id="g4264"
     style="display:inline">
    <g
       style="display:inline"
       id="layer6">
      <g
         id="layer1">
        <text
           id="text4192"
           y="494.05609"
           x="479.27231"
           style="font-style:normal;font-weight:normal;font-size:33.87585068px;line-height:125%;font-family:sans-serif;letter-spacing:0px;word-spacing:0px;fill:#323232;fill-opacity:1;stroke:none;stroke-width:1px;stroke-linecap:butt;stroke-linejoin:miter;stroke-opacity:1"
           xml:space="preserve"><tspan
             style="font-style:normal;font-variant:normal;font-weight:300;font-stretch:normal;font-size:50.81377411px;font-family:Butler;-inkscape-font-specification:'Butler Light';letter-spacing:1.69379258px;fill:#323232;fill-opacity:1"
             y="494.05609"
             x="479.27231"
             id="tspan4194">#comingsoon</tspan></text>
      </g>
      <g
         style="display:inline"
         id="layer8">
        <text
           id="text4216"
           y="297.40982"
           x="460.41531"
           style="font-style:normal;font-weight:normal;font-size:89.79865265px;line-height:125%;font-family:sans-serif;letter-spacing:0px;word-spacing:0px;fill:#323232;fill-opacity:1;stroke:none;stroke-width:1px;stroke-linecap:butt;stroke-linejoin:miter;stroke-opacity:1"
           xml:space="preserve"><tspan
             style="font-style:normal;font-variant:normal;font-weight:bold;font-stretch:normal;font-size:56.12414551px;font-family:Lato;-inkscape-font-specification:'Lato Bold';letter-spacing:22.44966316px;fill:#323232;fill-opacity:1"
             y="297.40982"
             x="460.41531"
             id="tspan4218">MODELS</tspan></text>
      </g>
      <g
         style="display:inline"
         id="g4297">
        <g
           style="font-style:normal;font-variant:normal;font-weight:normal;font-stretch:normal;font-size:40px;line-height:125%;font-family:Butler;-inkscape-font-specification:Butler;letter-spacing:1px;word-spacing:0px;fill:#323232;fill-opacity:1;stroke:none;stroke-width:1px;stroke-linecap:butt;stroke-linejoin:miter;stroke-opacity:1"
           id="g4299"
           transform="matrix(8.1182814,0,0,8.1182771,-4077.2202,-687.38818)">
          <g
             style="font-style:normal;font-weight:normal;font-size:8.66399956px;line-height:125%;font-family:sans-serif;letter-spacing:0px;word-spacing:0px;fill:#323232;fill-opacity:1;stroke:none;stroke-width:1px;stroke-linecap:butt;stroke-linejoin:miter;stroke-opacity:1"
             id="g4301"
             transform="matrix(1.5389349,0,0,1.5389349,-305.03663,-58.207849)">
            <path
               d="m 535.86416,103.82734 c -0.1166,3.38127 -2.89545,3.96425 -4.08085,3.96425 -1.90439,0 -4.76098,-0.52468 -4.76098,-6.80141 0,-6.140696 2.79829,-6.801408 4.76098,-6.801408 1.24369,0 3.8088,0.446958 4.08085,3.944824 l 0.21376,0 0.19433,-2.973194 c -1.22427,-0.991058 -2.48738,-1.185384 -4.48894,-1.185384 -3.96424,0 -6.7431,2.390206 -6.7431,7.015162 0,4.54723 2.77886,7.01517 6.7431,7.01517 2.07929,0 3.05092,-0.25262 4.48894,-1.20482 l -0.19433,-2.97319 -0.21376,0 z"
               style="font-style:normal;font-variant:normal;font-weight:300;font-stretch:normal;font-size:19.49399948px;font-family:Butler;-inkscape-font-specification:'Butler Light';fill:#323232;fill-opacity:1"
               id="path4303" />
            <path
               d="m 545.04792,97.861536 c 0,3.478434 -1.71006,3.458994 -4.08084,3.458994 l -0.60241,0 0,-6.956861 0.60241,0 c 2.17645,0 4.08084,-0.13603 4.08084,3.497867 z m 3.67277,9.755164 c -0.50525,-0.0389 -1.67121,-0.13603 -2.00157,-1.63234 -1.04935,-4.62496 -2.25417,-4.4112 -3.55616,-4.54722 1.98213,-0.0583 3.53673,-0.81617 3.53673,-3.575604 0,-3.245245 -1.86552,-3.711621 -5.73261,-3.711621 l -3.14808,0 0,0.213754 c 0.85504,0 1.10766,0.155459 1.10766,1.360282 l 0,9.852329 c 0,1.80723 -0.27206,2.04042 -1.10766,2.04042 l 0,0.21375 3.71163,0 0,-0.21375 c -0.81617,0 -1.16596,-0.29149 -1.16596,-1.65177 l 0,-4.43063 0.91333,0 c 0.75787,0 2.81772,0 3.30354,2.05985 0.99107,4.21687 0.79674,4.2363 2.81772,4.2363 l 1.32143,0 0,-0.21375 z"
               style="font-style:normal;font-variant:normal;font-weight:300;font-stretch:normal;font-size:19.49399948px;font-family:Butler;-inkscape-font-specification:'Butler Light';fill:#323232;fill-opacity:1"
               id="path4305" />
            <path
               d="m 552.43965,103.30266 2.46793,-6.820834 2.64284,6.820834 -5.11077,0 z m 9.4248,4.31404 c -0.56355,-0.0389 -0.9522,-0.1166 -1.57404,-1.67121 0,0 -3.53674,-8.938992 -4.72212,-11.795575 l -0.13603,0 -3.20638,8.841825 c -1.57403,4.41119 -2.05985,4.62496 -2.91489,4.62496 l 0,0.21375 4.11971,0 0,-0.21375 c -2.52623,0.0389 -1.86552,-1.76837 -1.04936,-4.10028 l 5.2468,0 0.69958,1.84609 c 0.69957,1.63234 0.48581,2.25419 -0.33036,2.25419 l 0,0.21375 3.86709,0 0,-0.21375 z"
               style="font-style:normal;font-variant:normal;font-weight:300;font-stretch:normal;font-size:19.49399948px;font-family:Butler;-inkscape-font-specification:'Butler Light';fill:#323232;fill-opacity:1"
               id="path4307" />
            <path
               d="m 574.26343,94.149915 0,0.213754 c 2.42908,0 1.74894,1.826668 0.91334,4.605527 l -2.37078,6.937434 -3.40071,-10.16325 c -0.0583,-0.194326 -0.40808,-1.379711 1.32142,-1.379711 l 0,-0.213754 -4.74155,0 0,0.213754 c 0.719,0 1.37971,0.174898 1.88496,1.496312 l 0.97162,2.89545 -2.29304,7.092899 -3.61446,-10.10495 c -0.0777,-0.194326 -0.38865,-1.379711 1.32142,-1.379711 l 0,-0.213754 -4.76099,0 0,0.213754 c 0.73844,0 1.39915,0.174898 1.90439,1.496312 l 4.45007,11.970469 0.25262,0 2.8566,-8.764091 3.10921,8.764091 0.23319,0 3.10922,-8.822387 c 1.4963,-4.178007 1.71006,-4.644394 3.4007,-4.644394 l 0,-0.213754 -4.54723,0 z"
               style="font-style:normal;font-variant:normal;font-weight:300;font-stretch:normal;font-size:19.49399948px;font-family:Butler;-inkscape-font-specification:'Butler Light';fill:#323232;fill-opacity:1"
               id="path4309" />
            <path
               d="m 579.37599,94.149915 0,0.213754 c 0.85502,0 0.99105,0.349785 0.99105,1.554608 l 0,9.832883 c 0,1.32143 -0.17489,1.86554 -0.99105,1.86554 l 0,0.21375 3.96424,0 0,-0.21375 c -0.87447,0 -1.37971,-0.21377 -1.37971,-1.98213 l 0,-4.60552 1.53517,0 c 0.7773,0 2.42907,0 2.50681,1.94325 l 0.21375,0 0,-4.080839 -0.21375,0 c -0.0778,1.923829 -1.72951,1.923829 -2.50681,1.923829 l -1.53517,0 0,-6.451621 1.22425,0 c 2.29304,0 4.78041,-0.05832 4.93588,3.18695 l 0.21376,0 0,-3.400704 -8.95842,0 z"
               style="font-style:normal;font-variant:normal;font-weight:300;font-stretch:normal;font-size:19.49399948px;font-family:Butler;-inkscape-font-specification:'Butler Light';fill:#323232;fill-opacity:1"
               id="path4311" />
            <path
               d="m 599.42911,101.08734 c 0,5.34396 -2.11815,6.70425 -4.41119,6.70425 -2.31249,0 -4.45007,-1.36029 -4.45007,-6.70425 0,-5.324522 2.13758,-6.898568 4.45007,-6.898568 2.29304,0 4.41119,1.574046 4.41119,6.898568 z m 1.71007,0 c 0,-3.847649 -1.84609,-7.112322 -6.12126,-7.112322 -4.27517,0 -6.12127,3.264673 -6.12127,7.112322 0,3.86709 1.8461,6.91801 6.12127,6.91801 4.27517,0 6.12126,-3.05092 6.12126,-6.91801 z"
               style="font-style:normal;font-variant:normal;font-weight:300;font-stretch:normal;font-size:19.49399948px;font-family:Butler;-inkscape-font-specification:'Butler Light';fill:#323232;fill-opacity:1"
               id="path4313" />
            <path
               d="m 609.05297,97.861536 c 0,3.478434 -1.71007,3.458994 -4.08085,3.458994 l -0.60241,0 0,-6.956861 0.60241,0 c 2.17645,0 4.08085,-0.13603 4.08085,3.497867 z m 3.67276,9.755164 c -0.50524,-0.0389 -1.6712,-0.13603 -2.00156,-1.63234 -1.04936,-4.62496 -2.25418,-4.4112 -3.55616,-4.54722 1.98212,-0.0583 3.53673,-0.81617 3.53673,-3.575604 0,-3.245245 -1.86553,-3.711621 -5.73262,-3.711621 l -3.14807,0 0,0.213754 c 0.85503,0 1.10765,0.155459 1.10765,1.360282 l 0,9.852329 c 0,1.80723 -0.27205,2.04042 -1.10765,2.04042 l 0,0.21375 3.71162,0 0,-0.21375 c -0.81617,0 -1.16596,-0.29149 -1.16596,-1.65177 l 0,-4.43063 0.91334,0 c 0.75786,0 2.81772,0 3.30354,2.05985 0.99106,4.21687 0.79673,4.2363 2.81772,4.2363 l 1.32142,0 0,-0.21375 z"
               style="font-style:normal;font-variant:normal;font-weight:300;font-stretch:normal;font-size:19.49399948px;font-family:Butler;-inkscape-font-specification:'Butler Light';fill:#323232;fill-opacity:1"
               id="path4315" />
            <path
               d="m 623.26552,101.00962 c 0,6.64595 -3.49786,6.60708 -5.67432,6.60708 l -0.85502,0 0,-13.253031 0.85502,0 c 2.25419,0 5.67432,0.252622 5.67432,6.645951 z m 1.82667,0 c 0,-5.69375 -3.6339,-6.859705 -7.50099,-6.859705 l -3.71162,0 0,0.213754 c 0.85504,0 1.24369,0.680141 1.24369,1.884964 l 0,9.444237 c 0,1.32141 -0.40809,1.92383 -1.24369,1.92383 l 0,0.21375 3.71162,0 c 3.86709,0 7.50099,-0.8356 7.50099,-6.82083 z"
               style="font-style:normal;font-variant:normal;font-weight:300;font-stretch:normal;font-size:19.49399948px;font-family:Butler;-inkscape-font-specification:'Butler Light';fill:#323232;fill-opacity:1"
               id="path4317" />
          </g>
        </g>
      </g>
    </g>
  </g>
</svg>
