<?xml version="1.0" encoding="UTF-8" standalone="no"?>
<svg
   xmlns:dc="http://purl.org/dc/elements/1.1/"
   xmlns:cc="http://creativecommons.org/ns#"
   xmlns:rdf="http://www.w3.org/1999/02/22-rdf-syntax-ns#"
   xmlns:svg="http://www.w3.org/2000/svg"
   xmlns="http://www.w3.org/2000/svg"
   style="enable-background:new"
   version="1.1"
   id="svg2"
   viewBox="0 0 1262 503.85904"
   height="503.85901"
   width="1262">
  <defs
     id="defs4" />
  <metadata
     id="metadata7">
    <rdf:RDF>
      <cc:Work
         rdf:about="">
        <dc:format>image/svg+xml</dc:format>
        <dc:type
           rdf:resource="http://purl.org/dc/dcmitype/StillImage" />
        <dc:title></dc:title>
      </cc:Work>
    </rdf:RDF>
  </metadata>
  <g
     transform="translate(0,-8.1410294)"
     id="g4264"
     style="display:inline">
    <g
       style="display:inline"
       id="layer6">
      <g
         id="layer1">
        <g
           transform="translate(-118.99998,394.00002)"
           id="text4192"
           style="font-style:normal;font-weight:normal;font-size:33.87585068px;line-height:125%;font-family:sans-serif;letter-spacing:0px;word-spacing:0px;fill:#323232;fill-opacity:1;stroke:none;stroke-width:1px;stroke-linecap:butt;stroke-linejoin:miter;stroke-opacity:1">
          <path
             id="path4162"
             style="font-style:normal;font-variant:normal;font-weight:300;font-stretch:normal;font-size:50.81377411px;font-family:Butler;-inkscape-font-specification:'Butler Light';letter-spacing:1.69379258px;fill:#323232;fill-opacity:1"
             d="m 620.88441,75.360574 -2.23581,9.807059 -8.68915,0 2.18499,-9.807059 8.73997,0 z m 10.01031,0 0,-2.235806 -7.0123,0 2.54069,-10.975775 -2.48988,0 -2.54068,10.975775 -8.73997,0 2.54068,-10.975775 -2.48987,0 -2.54069,10.975775 -6.96149,0 0,2.235806 6.45335,0 -2.18499,9.807059 -7.46962,0 0,2.286619 6.91067,0 -2.84557,12.601818 2.48987,0 2.84557,-12.601818 8.73997,0 -2.84557,12.601818 2.48988,0 2.84557,-12.601818 7.06311,0 0,-2.286619 -6.55497,0 2.2358,-9.807059 7.52044,0 z" />
          <path
             id="path4164"
             style="font-style:normal;font-variant:normal;font-weight:300;font-stretch:normal;font-size:50.81377411px;font-family:Butler;-inkscape-font-specification:'Butler Light';letter-spacing:1.69379258px;fill:#323232;fill-opacity:1"
             d="m 656.99977,93.602719 c -0.81302,2.235806 -3.50615,5.132191 -7.82532,4.928936 -3.65859,-0.152441 -7.87614,-3.048826 -7.87614,-10.518451 0,-9.807058 5.8944,-11.331472 8.02858,-11.331472 4.0651,0 5.64033,1.829296 5.13219,1.727669 -0.3557,-0.101628 -0.91465,0.152441 -1.32116,0.558951 -0.81302,0.762207 -0.7622,1.981737 0.0508,2.794758 0.71139,0.711393 2.08336,0.609765 2.79475,-0.101628 0.55896,-0.558951 0.60977,-1.371972 0.40651,-2.032551 -0.20325,-0.863834 -1.37197,-3.50615 -7.06311,-3.50615 -7.31718,0 -11.94124,5.894398 -11.94124,12.296933 0,8.231832 5.84359,12.093676 10.97578,12.093676 6.19928,0 8.58753,-4.268355 9.04485,-6.75823 l -0.40651,-0.152441 z" />
          <path
             id="path4166"
             style="font-style:normal;font-variant:normal;font-weight:300;font-stretch:normal;font-size:50.81377411px;font-family:Butler;-inkscape-font-specification:'Butler Light';letter-spacing:1.69379258px;fill:#323232;fill-opacity:1"
             d="m 681.84717,88.318087 c 0,9.197293 -3.40452,11.636354 -7.41881,11.636354 -4.01428,0 -7.46962,-2.439061 -7.46962,-11.636354 0,-9.197294 3.45534,-11.636355 7.46962,-11.636355 4.01429,0 7.41881,2.439061 7.41881,11.636355 z m 4.11592,0 c 0,-6.707419 -3.76022,-12.195306 -11.53473,-12.195306 -7.72369,0 -11.53472,5.487887 -11.53472,12.195306 0,6.656604 3.81103,12.195303 11.53472,12.195303 7.77451,0 11.53473,-5.538699 11.53473,-12.195303 z" />
          <path
             id="path4168"
             style="font-style:normal;font-variant:normal;font-weight:300;font-stretch:normal;font-size:50.81377411px;font-family:Butler;-inkscape-font-specification:'Butler Light';letter-spacing:1.69379258px;fill:#323232;fill-opacity:1"
             d="m 725.52347,99.547931 c -1.8293,-0.457324 -2.08337,-0.660579 -2.08337,-3.455337 l 0,-11.687168 c 0,-6.097653 -2.5915,-8.282645 -6.80904,-8.282645 -3.25208,0 -6.09766,2.489875 -7.0123,5.487887 -0.66058,-3.91266 -2.9472,-5.487887 -6.50417,-5.487887 -3.20126,0 -5.99602,2.337433 -6.96148,5.183005 l 0,-5.183005 -6.04684,1.168717 0,0.508137 c 2.13418,0.304883 2.54069,1.06709 2.54069,2.845572 l 0,15.447387 c 0,2.591503 -0.10163,2.845571 -2.03256,3.404523 l 0,0.558953 7.62207,0 0,-0.558953 c -1.82929,-0.457324 -2.08336,-0.609765 -2.08336,-3.404523 l 0,-13.567278 c 0.50813,-1.676854 2.2358,-4.471612 5.183,-4.471612 3.70941,0 5.03056,2.489875 5.03056,6.554977 l 0,11.483913 c 0,2.591503 -0.10162,2.896385 -2.03255,3.455337 l 0,0.508139 7.57126,0 0,-0.508139 c -1.77849,-0.457324 -2.08337,-0.660579 -2.08337,-3.455337 l 0,-11.58554 c 0,-0.711393 0,-1.422786 0,-1.88011 0.50814,-1.727668 2.13418,-4.57324 5.08138,-4.57324 3.65859,0 5.08138,2.489875 5.08138,6.554977 l 0,11.483913 c 0,2.591503 -0.10163,2.896385 -2.03255,3.455337 l 0,0.508139 7.57125,0 0,-0.508139 z" />
          <path
             id="path4170"
             style="font-style:normal;font-variant:normal;font-weight:300;font-stretch:normal;font-size:50.81377411px;font-family:Butler;-inkscape-font-specification:'Butler Light';letter-spacing:1.69379258px;fill:#323232;fill-opacity:1"
             d="m 733.14739,71.80361 c 1.16872,0 2.185,-0.965462 2.185,-2.134178 0,-1.219531 -1.01628,-2.184993 -2.185,-2.184993 -1.21953,0 -2.13418,0.965462 -2.13418,2.184993 0,1.168716 0.91465,2.134178 2.13418,2.134178 z m 4.31917,27.693507 c -1.82929,-0.457324 -2.08336,-0.609765 -2.08336,-3.404523 l 0,-19.969813 -5.99603,1.168717 0,0.508137 c 2.13418,0.304883 2.54069,1.016276 2.54069,2.743944 l 0,15.549015 c 0,2.591503 -0.10163,2.845571 -2.03255,3.404523 l 0,0.558953 7.57125,0 0,-0.558953 z" />
          <path
             id="path4172"
             style="font-style:normal;font-variant:normal;font-weight:300;font-stretch:normal;font-size:50.81377411px;font-family:Butler;-inkscape-font-specification:'Butler Light';letter-spacing:1.69379258px;fill:#323232;fill-opacity:1"
             d="m 764.59582,99.547931 c -1.82929,-0.457324 -2.08336,-0.660579 -2.08336,-3.455337 l 0,-11.687168 c 0,-6.097653 -3.15046,-8.282645 -7.31719,-8.282645 -3.20126,0 -6.50416,2.388247 -7.52044,5.233819 l 0,-5.233819 -6.04683,1.168717 0,0.508137 c 2.13417,0.304883 2.54068,1.016276 2.54068,2.794758 l 0,15.498201 c 0,2.591503 -0.10162,2.845571 -2.03255,3.404523 l 0,0.558953 7.62207,0 0,-0.558953 c -1.8293,-0.457324 -2.08337,-0.609765 -2.08337,-3.404523 l 0,-13.567278 c 0.60977,-1.727668 2.69313,-4.471612 5.58952,-4.471612 3.76022,0 5.79277,2.591503 5.79277,6.554977 l 0,11.483913 c 0,2.591503 -0.10163,2.896385 -2.03255,3.455337 l 0,0.508139 7.57125,0 0,-0.508139 z" />
          <path
             id="path4174"
             style="font-style:normal;font-variant:normal;font-weight:300;font-stretch:normal;font-size:50.81377411px;font-family:Butler;-inkscape-font-specification:'Butler Light';letter-spacing:1.69379258px;fill:#323232;fill-opacity:1"
             d="m 785.81878,83.948102 c 0,5.691143 -3.45534,7.367997 -5.79277,7.367997 -2.23581,0 -5.69115,-1.676854 -5.69115,-7.367997 0,-5.691143 3.15046,-7.26637 5.69115,-7.26637 2.18499,0 5.79277,1.575227 5.79277,7.26637 z m 7.46962,-4.471612 c 0.91465,-0.660579 1.1179,-1.930924 0.40651,-2.845571 -0.45732,-0.609766 -1.27034,-0.863835 -2.08336,-0.813021 -1.16872,0.05081 -3.20127,0.863834 -4.47162,2.743944 -1.62604,-1.524413 -4.26835,-2.439061 -7.11392,-2.439061 -5.64033,0 -9.34974,3.709405 -9.34974,7.825321 0,2.69313 1.16872,5.538701 3.91266,6.758232 -4.62405,1.117903 -4.31917,5.233819 -4.31917,5.233819 0,1.575227 0.55895,2.947199 2.08337,3.709405 -3.50615,2.184992 -5.38626,5.792772 -3.45534,9.095662 2.13418,3.70941 9.55299,4.62406 16.36204,0.76221 5.33544,-2.99801 5.48788,-6.80905 5.48788,-6.80905 0.86384,-6.148462 -5.38626,-5.691138 -8.89241,-5.691138 l -5.58951,0 c -6.35172,0 -4.01429,-5.741957 -1.16872,-6.046839 1.37197,0.609765 2.9472,0.914648 4.92894,0.914648 5.74195,0 9.45136,-3.811033 9.45136,-7.926949 0,-1.829296 -0.66058,-3.811033 -1.98174,-5.081377 0.96546,-1.4736 2.74394,-1.626041 2.64232,-1.219531 -0.15244,0.508138 0,1.067089 0.30488,1.524413 0.71139,0.863834 1.98174,1.016276 2.84557,0.304883 z m -21.34178,28.35409 c 0.15244,0.15244 -3.96348,-4.4208 0.96546,-7.876139 1.67685,0.609769 3.60778,0.558949 4.16673,0.558949 l 7.11393,0 c 4.67486,0 4.72568,2.5915 4.72568,2.5915 0,0 0.30488,3.20127 -3.96348,5.8944 -4.36998,2.74395 -10.82333,1.42279 -13.00832,-1.16871 z" />
          <path
             id="path4176"
             style="font-style:normal;font-variant:normal;font-weight:300;font-stretch:normal;font-size:50.81377411px;font-family:Butler;-inkscape-font-specification:'Butler Light';letter-spacing:1.69379258px;fill:#323232;fill-opacity:1"
             d="m 813.19099,98.125145 c 2.38824,-3.404523 0.96546,-7.418811 -3.6586,-10.264382 l -5.13219,-3.201268 c -4.4208,-2.794758 -4.57324,-7.977763 0.96546,-7.977763 6.2501,0 7.57126,3.963475 7.77451,7.520439 l 0.50814,0 0,-6.453349 c 0,0 -2.43906,-1.626041 -8.28265,-1.626041 -5.183,0 -6.50416,3.09964 -6.50416,3.09964 -1.67685,3.353709 -0.66058,5.894398 4.16673,9.248107 l 5.13219,3.09964 c 3.86185,2.540689 5.18301,8.384273 -1.06709,8.384273 -6.96148,0 -8.02857,-4.420798 -8.23183,-8.4859 l -0.50814,0 0,7.164742 c 0,0 2.59151,1.880107 8.73997,1.880107 4.47162,0 6.09766,-2.388245 6.09766,-2.388245 z" />
          <path
             id="path4178"
             style="font-style:normal;font-variant:normal;font-weight:300;font-stretch:normal;font-size:50.81377411px;font-family:Butler;-inkscape-font-specification:'Butler Light';letter-spacing:1.69379258px;fill:#323232;fill-opacity:1"
             d="m 839.98521,88.318087 c 0,9.197293 -3.40453,11.636354 -7.41882,11.636354 -4.01428,0 -7.46962,-2.439061 -7.46962,-11.636354 0,-9.197294 3.45534,-11.636355 7.46962,-11.636355 4.01429,0 7.41882,2.439061 7.41882,11.636355 z m 4.11591,0 c 0,-6.707419 -3.76022,-12.195306 -11.53473,-12.195306 -7.72369,0 -11.53472,5.487887 -11.53472,12.195306 0,6.656604 3.81103,12.195303 11.53472,12.195303 7.77451,0 11.53473,-5.538699 11.53473,-12.195303 z" />
          <path
             id="path4180"
             style="font-style:normal;font-variant:normal;font-weight:300;font-stretch:normal;font-size:50.81377411px;font-family:Butler;-inkscape-font-specification:'Butler Light';letter-spacing:1.69379258px;fill:#323232;fill-opacity:1"
             d="m 868.77305,88.318087 c 0,9.197293 -3.40453,11.636354 -7.41881,11.636354 -4.01429,0 -7.46963,-2.439061 -7.46963,-11.636354 0,-9.197294 3.45534,-11.636355 7.46963,-11.636355 4.01428,0 7.41881,2.439061 7.41881,11.636355 z m 4.11591,0 c 0,-6.707419 -3.76022,-12.195306 -11.53472,-12.195306 -7.7237,0 -11.53473,5.487887 -11.53473,12.195306 0,6.656604 3.81103,12.195303 11.53473,12.195303 7.7745,0 11.53472,-5.538699 11.53472,-12.195303 z" />
          <path
             id="path4182"
             style="font-style:normal;font-variant:normal;font-weight:300;font-stretch:normal;font-size:50.81377411px;font-family:Butler;-inkscape-font-specification:'Butler Light';letter-spacing:1.69379258px;fill:#323232;fill-opacity:1"
             d="m 899.99998,99.547931 c -1.82929,-0.457324 -2.08336,-0.660579 -2.08336,-3.455337 l 0,-11.687168 c 0,-6.097653 -3.15046,-8.282645 -7.31719,-8.282645 -3.20127,0 -6.50416,2.388247 -7.52044,5.233819 l 0,-5.233819 -6.04683,1.168717 0,0.508137 c 2.13417,0.304883 2.54068,1.016276 2.54068,2.794758 l 0,15.498201 c 0,2.591503 -0.10162,2.845571 -2.03255,3.404523 l 0,0.558953 7.62207,0 0,-0.558953 c -1.8293,-0.457324 -2.08337,-0.609765 -2.08337,-3.404523 l 0,-13.567278 c 0.60977,-1.727668 2.69313,-4.471612 5.58952,-4.471612 3.76022,0 5.79277,2.591503 5.79277,6.554977 l 0,11.483913 c 0,2.591503 -0.10163,2.896385 -2.03255,3.455337 l 0,0.508139 7.57125,0 0,-0.508139 z" />
        </g>
      </g>
      <g
         style="display:inline"
         id="layer8">
        <g
           id="text4216"
           style="font-style:normal;font-weight:normal;font-size:89.79865265px;line-height:125%;font-family:sans-serif;letter-spacing:0px;word-spacing:0px;fill:#323232;fill-opacity:1;stroke:none;stroke-width:1px;stroke-linecap:butt;stroke-linejoin:miter;stroke-opacity:1">
          <path
             id="path4185"
             style="font-style:normal;font-variant:normal;font-weight:bold;font-stretch:normal;font-size:56.12414551px;font-family:Lato;-inkscape-font-specification:'Lato Bold';letter-spacing:22.44966316px;fill:#323232;fill-opacity:1"
             d="m 484.88544,280.57258 q 0.47706,0.89798 0.86993,1.88016 0.42093,0.95411 0.8138,1.93628 0.39286,-1.01024 0.8138,-1.99241 0.42093,-0.98217 0.89798,-1.88016 l 12.01057,-22.47772 q 0.2245,-0.42093 0.44899,-0.67349 0.25256,-0.25256 0.53318,-0.3648 0.30868,-0.11225 0.67349,-0.14031 0.36481,-0.0281 0.86993,-0.0281 l 5.6966,0 0,40.57776 -6.65071,0 0,-26.20998 q 0,-0.72961 0.0281,-1.59953 0.0561,-0.86993 0.14031,-1.76791 l -12.26313,23.0109 q -0.42093,0.78573 -1.09442,1.23473 -0.67349,0.42093 -1.57148,0.42093 l -1.03829,0 q -0.89799,0 -1.57148,-0.42093 -0.67349,-0.449 -1.09442,-1.23473 l -12.4315,-23.09509 q 0.11225,0.92605 0.14031,1.82403 0.0561,0.86993 0.0561,1.6276 l 0,26.20998 -6.65071,0 0,-40.57776 5.6966,0 q 0.50511,0 0.86992,0.0281 0.36481,0.0281 0.64543,0.14031 0.30868,0.11224 0.56124,0.3648 0.25256,0.25256 0.47706,0.67349 l 12.12281,22.53385 0,0 z" />
          <path
             id="path4187"
             style="font-style:normal;font-variant:normal;font-weight:bold;font-stretch:normal;font-size:56.12414551px;font-family:Lato;-inkscape-font-specification:'Lato Bold';letter-spacing:22.44966316px;fill:#323232;fill-opacity:1"
             d="m 578.06205,277.12094 q 0,4.46187 -1.48729,8.27831 -1.48729,3.78838 -4.18125,6.56653 -2.69396,2.77814 -6.48234,4.34962 -3.78838,1.54341 -8.39056,1.54341 -4.60218,0 -8.41862,-1.54341 -3.78838,-1.57148 -6.5104,-4.34962 -2.69396,-2.77815 -4.18125,-6.56653 -1.48729,-3.81644 -1.48729,-8.27831 0,-4.46187 1.48729,-8.25025 1.48729,-3.81644 4.18125,-6.59458 2.72202,-2.77815 6.5104,-4.32156 3.81644,-1.57148 8.41862,-1.57148 4.60218,0 8.39056,1.57148 3.78838,1.57147 6.48234,4.34962 2.69396,2.75008 4.18125,6.56652 1.48729,3.78838 1.48729,8.25025 z m -7.74513,0 q 0,-3.33938 -0.89799,-5.97722 -0.86992,-2.6659 -2.52558,-4.51799 -1.65567,-1.8521 -4.04094,-2.83427 -2.35722,-0.98218 -5.3318,-0.98218 -2.97458,0 -5.35985,0.98218 -2.38528,0.98217 -4.069,2.83427 -1.65567,1.85209 -2.55365,4.51799 -0.89799,2.63784 -0.89799,5.97722 0,3.33939 0.89799,6.00529 0.89798,2.63783 2.55365,4.48993 1.68372,1.82403 4.069,2.8062 2.38527,0.98218 5.35985,0.98218 2.97458,0 5.3318,-0.98218 2.38527,-0.98217 4.04094,-2.8062 1.65566,-1.8521 2.52558,-4.48993 0.89799,-2.6659 0.89799,-6.00529 z" />
          <path
             id="path4189"
             style="font-style:normal;font-variant:normal;font-weight:bold;font-stretch:normal;font-size:56.12414551px;font-family:Lato;-inkscape-font-specification:'Lato Bold';letter-spacing:22.44966316px;fill:#323232;fill-opacity:1"
             d="m 642.45487,277.12094 q 0,4.46187 -1.48728,8.19413 -1.48729,3.73225 -4.18125,6.42621 -2.69396,2.69396 -6.48234,4.18125 -3.78838,1.48729 -8.39056,1.48729 l -15.49027,0 0,-40.57776 15.49027,0 q 4.60218,0 8.39056,1.51536 3.78838,1.48729 6.48234,4.18124 2.69396,2.6659 4.18125,6.39816 1.48728,3.73225 1.48728,8.19412 z m -7.71707,0 q 0,-3.33938 -0.89798,-5.97722 -0.89799,-2.6659 -2.55365,-4.48993 -1.65566,-1.8521 -4.04094,-2.83427 -2.35721,-0.98217 -5.33179,-0.98217 l -7.88544,0 0,28.56719 7.88544,0 q 2.97458,0 5.33179,-0.98218 2.38528,-0.98217 4.04094,-2.8062 1.65566,-1.8521 2.55365,-4.48993 0.89798,-2.6659 0.89798,-6.00529 z" />
          <path
             id="path4191"
             style="font-style:normal;font-variant:normal;font-weight:bold;font-stretch:normal;font-size:56.12414551px;font-family:Lato;-inkscape-font-specification:'Lato Bold';letter-spacing:22.44966316px;fill:#323232;fill-opacity:1"
             d="m 696.44894,256.83206 0,6.00529 -17.98779,0 0,11.25289 14.17134,0 0,5.80885 -14.17134,0 0,11.47738 17.98779,0 0,6.03335 -25.59262,0 0,-40.57776 25.59262,0 z" />
          <path
             id="path4193"
             style="font-style:normal;font-variant:normal;font-weight:bold;font-stretch:normal;font-size:56.12414551px;font-family:Lato;-inkscape-font-specification:'Lato Bold';letter-spacing:22.44966316px;fill:#323232;fill-opacity:1"
             d="m 732.9726,291.18004 16.24794,0 0,6.22978 -23.79663,0 0,-40.57776 7.54869,0 0,34.34798 z" />
          <path
             id="path4195"
             style="font-style:normal;font-variant:normal;font-weight:bold;font-stretch:normal;font-size:56.12414551px;font-family:Lato;-inkscape-font-specification:'Lato Bold';letter-spacing:22.44966316px;fill:#323232;fill-opacity:1"
             d="m 798.6703,264.21239 q -0.30868,0.61736 -0.72961,0.86992 -0.39287,0.25256 -0.95411,0.25256 -0.56124,0 -1.26279,-0.42093 -0.70156,-0.44899 -1.65567,-0.98217 -0.95411,-0.53318 -2.24496,-0.95411 -1.2628,-0.449 -3.00264,-0.449 -1.57148,0 -2.75009,0.39287 -1.15054,0.36481 -1.96434,1.0383 -0.78574,0.67349 -1.17861,1.6276 -0.39287,0.92605 -0.39287,2.04853 0,1.43117 0.78574,2.38528 0.8138,0.95411 2.13272,1.6276 1.31891,0.67349 3.00264,1.20667 1.68372,0.53318 3.42357,1.15054 1.76791,0.58931 3.45164,1.40311 1.68372,0.78573 3.00264,2.02046 1.31892,1.20667 2.10465,2.97458 0.8138,1.76792 0.8138,4.2935 0,2.75008 -0.95411,5.16342 -0.92604,2.38528 -2.75008,4.18125 -1.79597,1.76791 -4.40575,2.80621 -2.60977,1.01023 -5.97722,1.01023 -1.93628,0 -3.81644,-0.39287 -1.88016,-0.3648 -3.62001,-1.06635 -1.71178,-0.70156 -3.22713,-1.68373 -1.48729,-0.98217 -2.6659,-2.18884 l 2.18884,-3.62001 q 0.30868,-0.39287 0.72961,-0.64543 0.449,-0.28062 0.98218,-0.28062 0.70155,0 1.51535,0.58931 0.8138,0.56124 1.90822,1.26279 1.12248,0.70155 2.60977,1.29086 1.51535,0.56124 3.62001,0.56124 3.22714,0 4.99505,-1.51535 1.76791,-1.54342 1.76791,-4.40575 0,-1.59954 -0.8138,-2.60977 -0.78574,-1.01024 -2.10466,-1.68373 -1.31891,-0.70155 -3.00264,-1.1786 -1.68372,-0.47706 -3.42357,-1.0383 -1.73985,-0.56124 -3.42357,-1.34698 -1.68373,-0.78574 -3.00265,-2.04853 -1.31891,-1.26279 -2.13271,-3.14295 -0.78574,-1.90822 -0.78574,-4.68637 0,-2.2169 0.86992,-4.32156 0.89799,-2.10465 2.58171,-3.73225 1.71179,-1.6276 4.18125,-2.60978 2.46947,-0.98217 5.64048,-0.98217 3.59194,0 6.62265,1.12248 3.0307,1.12249 5.16342,3.14296 l -1.8521,3.56388 z" />
        </g>
      </g>
      <g
         style="display:inline"
         id="g4297">
        <g
           style="font-style:normal;font-variant:normal;font-weight:normal;font-stretch:normal;font-size:40px;line-height:125%;font-family:Butler;-inkscape-font-specification:Butler;letter-spacing:1px;word-spacing:0px;fill:#323232;fill-opacity:1;stroke:none;stroke-width:1px;stroke-linecap:butt;stroke-linejoin:miter;stroke-opacity:1"
           id="g4299"
           transform="matrix(8.1182814,0,0,8.1182771,-4077.2202,-687.38818)">
          <g
             style="font-style:normal;font-weight:normal;font-size:8.66399956px;line-height:125%;font-family:sans-serif;letter-spacing:0px;word-spacing:0px;fill:#323232;fill-opacity:1;stroke:none;stroke-width:1px;stroke-linecap:butt;stroke-linejoin:miter;stroke-opacity:1"
             id="g4301"
             transform="matrix(1.5389349,0,0,1.5389349,-305.03663,-58.207849)">
            <path
               d="m 535.86416,103.82734 c -0.1166,3.38127 -2.89545,3.96425 -4.08085,3.96425 -1.90439,0 -4.76098,-0.52468 -4.76098,-6.80141 0,-6.140696 2.79829,-6.801408 4.76098,-6.801408 1.24369,0 3.8088,0.446958 4.08085,3.944824 l 0.21376,0 0.19433,-2.973194 c -1.22427,-0.991058 -2.48738,-1.185384 -4.48894,-1.185384 -3.96424,0 -6.7431,2.390206 -6.7431,7.015162 0,4.54723 2.77886,7.01517 6.7431,7.01517 2.07929,0 3.05092,-0.25262 4.48894,-1.20482 l -0.19433,-2.97319 -0.21376,0 z"
               style="font-style:normal;font-variant:normal;font-weight:300;font-stretch:normal;font-size:19.49399948px;font-family:Butler;-inkscape-font-specification:'Butler Light';fill:#323232;fill-opacity:1"
               id="path4303" />
            <path
               d="m 545.04792,97.861536 c 0,3.478434 -1.71006,3.458994 -4.08084,3.458994 l -0.60241,0 0,-6.956861 0.60241,0 c 2.17645,0 4.08084,-0.13603 4.08084,3.497867 z m 3.67277,9.755164 c -0.50525,-0.0389 -1.67121,-0.13603 -2.00157,-1.63234 -1.04935,-4.62496 -2.25417,-4.4112 -3.55616,-4.54722 1.98213,-0.0583 3.53673,-0.81617 3.53673,-3.575604 0,-3.245245 -1.86552,-3.711621 -5.73261,-3.711621 l -3.14808,0 0,0.213754 c 0.85504,0 1.10766,0.155459 1.10766,1.360282 l 0,9.852329 c 0,1.80723 -0.27206,2.04042 -1.10766,2.04042 l 0,0.21375 3.71163,0 0,-0.21375 c -0.81617,0 -1.16596,-0.29149 -1.16596,-1.65177 l 0,-4.43063 0.91333,0 c 0.75787,0 2.81772,0 3.30354,2.05985 0.99107,4.21687 0.79674,4.2363 2.81772,4.2363 l 1.32143,0 0,-0.21375 z"
               style="font-style:normal;font-variant:normal;font-weight:300;font-stretch:normal;font-size:19.49399948px;font-family:Butler;-inkscape-font-specification:'Butler Light';fill:#323232;fill-opacity:1"
               id="path4305" />
            <path
               d="m 552.43965,103.30266 2.46793,-6.820834 2.64284,6.820834 -5.11077,0 z m 9.4248,4.31404 c -0.56355,-0.0389 -0.9522,-0.1166 -1.57404,-1.67121 0,0 -3.53674,-8.938992 -4.72212,-11.795575 l -0.13603,0 -3.20638,8.841825 c -1.57403,4.41119 -2.05985,4.62496 -2.91489,4.62496 l 0,0.21375 4.11971,0 0,-0.21375 c -2.52623,0.0389 -1.86552,-1.76837 -1.04936,-4.10028 l 5.2468,0 0.69958,1.84609 c 0.69957,1.63234 0.48581,2.25419 -0.33036,2.25419 l 0,0.21375 3.86709,0 0,-0.21375 z"
               style="font-style:normal;font-variant:normal;font-weight:300;font-stretch:normal;font-size:19.49399948px;font-family:Butler;-inkscape-font-specification:'Butler Light';fill:#323232;fill-opacity:1"
               id="path4307" />
            <path
               d="m 574.26343,94.149915 0,0.213754 c 2.42908,0 1.74894,1.826668 0.91334,4.605527 l -2.37078,6.937434 -3.40071,-10.16325 c -0.0583,-0.194326 -0.40808,-1.379711 1.32142,-1.379711 l 0,-0.213754 -4.74155,0 0,0.213754 c 0.719,0 1.37971,0.174898 1.88496,1.496312 l 0.97162,2.89545 -2.29304,7.092899 -3.61446,-10.10495 c -0.0777,-0.194326 -0.38865,-1.379711 1.32142,-1.379711 l 0,-0.213754 -4.76099,0 0,0.213754 c 0.73844,0 1.39915,0.174898 1.90439,1.496312 l 4.45007,11.970469 0.25262,0 2.8566,-8.764091 3.10921,8.764091 0.23319,0 3.10922,-8.822387 c 1.4963,-4.178007 1.71006,-4.644394 3.4007,-4.644394 l 0,-0.213754 -4.54723,0 z"
               style="font-style:normal;font-variant:normal;font-weight:300;font-stretch:normal;font-size:19.49399948px;font-family:Butler;-inkscape-font-specification:'Butler Light';fill:#323232;fill-opacity:1"
               id="path4309" />
            <path
               d="m 579.37599,94.149915 0,0.213754 c 0.85502,0 0.99105,0.349785 0.99105,1.554608 l 0,9.832883 c 0,1.32143 -0.17489,1.86554 -0.99105,1.86554 l 0,0.21375 3.96424,0 0,-0.21375 c -0.87447,0 -1.37971,-0.21377 -1.37971,-1.98213 l 0,-4.60552 1.53517,0 c 0.7773,0 2.42907,0 2.50681,1.94325 l 0.21375,0 0,-4.080839 -0.21375,0 c -0.0778,1.923829 -1.72951,1.923829 -2.50681,1.923829 l -1.53517,0 0,-6.451621 1.22425,0 c 2.29304,0 4.78041,-0.05832 4.93588,3.18695 l 0.21376,0 0,-3.400704 -8.95842,0 z"
               style="font-style:normal;font-variant:normal;font-weight:300;font-stretch:normal;font-size:19.49399948px;font-family:Butler;-inkscape-font-specification:'Butler Light';fill:#323232;fill-opacity:1"
               id="path4311" />
            <path
               d="m 599.42911,101.08734 c 0,5.34396 -2.11815,6.70425 -4.41119,6.70425 -2.31249,0 -4.45007,-1.36029 -4.45007,-6.70425 0,-5.324522 2.13758,-6.898568 4.45007,-6.898568 2.29304,0 4.41119,1.574046 4.41119,6.898568 z m 1.71007,0 c 0,-3.847649 -1.84609,-7.112322 -6.12126,-7.112322 -4.27517,0 -6.12127,3.264673 -6.12127,7.112322 0,3.86709 1.8461,6.91801 6.12127,6.91801 4.27517,0 6.12126,-3.05092 6.12126,-6.91801 z"
               style="font-style:normal;font-variant:normal;font-weight:300;font-stretch:normal;font-size:19.49399948px;font-family:Butler;-inkscape-font-specification:'Butler Light';fill:#323232;fill-opacity:1"
               id="path4313" />
            <path
               d="m 609.05297,97.861536 c 0,3.478434 -1.71007,3.458994 -4.08085,3.458994 l -0.60241,0 0,-6.956861 0.60241,0 c 2.17645,0 4.08085,-0.13603 4.08085,3.497867 z m 3.67276,9.755164 c -0.50524,-0.0389 -1.6712,-0.13603 -2.00156,-1.63234 -1.04936,-4.62496 -2.25418,-4.4112 -3.55616,-4.54722 1.98212,-0.0583 3.53673,-0.81617 3.53673,-3.575604 0,-3.245245 -1.86553,-3.711621 -5.73262,-3.711621 l -3.14807,0 0,0.213754 c 0.85503,0 1.10765,0.155459 1.10765,1.360282 l 0,9.852329 c 0,1.80723 -0.27205,2.04042 -1.10765,2.04042 l 0,0.21375 3.71162,0 0,-0.21375 c -0.81617,0 -1.16596,-0.29149 -1.16596,-1.65177 l 0,-4.43063 0.91334,0 c 0.75786,0 2.81772,0 3.30354,2.05985 0.99106,4.21687 0.79673,4.2363 2.81772,4.2363 l 1.32142,0 0,-0.21375 z"
               style="font-style:normal;font-variant:normal;font-weight:300;font-stretch:normal;font-size:19.49399948px;font-family:Butler;-inkscape-font-specification:'Butler Light';fill:#323232;fill-opacity:1"
               id="path4315" />
            <path
               d="m 623.26552,101.00962 c 0,6.64595 -3.49786,6.60708 -5.67432,6.60708 l -0.85502,0 0,-13.253031 0.85502,0 c 2.25419,0 5.67432,0.252622 5.67432,6.645951 z m 1.82667,0 c 0,-5.69375 -3.6339,-6.859705 -7.50099,-6.859705 l -3.71162,0 0,0.213754 c 0.85504,0 1.24369,0.680141 1.24369,1.884964 l 0,9.444237 c 0,1.32141 -0.40809,1.92383 -1.24369,1.92383 l 0,0.21375 3.71162,0 c 3.86709,0 7.50099,-0.8356 7.50099,-6.82083 z"
               style="font-style:normal;font-variant:normal;font-weight:300;font-stretch:normal;font-size:19.49399948px;font-family:Butler;-inkscape-font-specification:'Butler Light';fill:#323232;fill-opacity:1"
               id="path4317" />
          </g>
        </g>
      </g>
    </g>
  </g>
</svg>
